<?xml version="1.0" encoding="UTF-8" standalone="no"?>
<svg
   stroke="currentColor"
   fill="currentColor"
   stroke-width="0"
   viewBox="0 0 256 256"
   height="200px"
   width="200px"
   version="1.1"
   id="svg4"
   sodipodi:docname="icon.svg"
   inkscape:version="1.2.2 (b0a8486541, 2022-12-01)"
   xmlns:inkscape="http://www.inkscape.org/namespaces/inkscape"
   xmlns:sodipodi="http://sodipodi.sourceforge.net/DTD/sodipodi-0.dtd"
   xmlns="http://www.w3.org/2000/svg"
   xmlns:svg="http://www.w3.org/2000/svg">
  <defs
     id="defs8" />
  <sodipodi:namedview
     id="namedview6"
     pagecolor="#ffffff"
     bordercolor="#000000"
     borderopacity="0.25"
     inkscape:showpageshadow="2"
     inkscape:pageopacity="0.0"
     inkscape:pagecheckerboard="0"
     inkscape:deskcolor="#d1d1d1"
     showgrid="false"
     inkscape:zoom="1.18"
     inkscape:cx="-76.694915"
     inkscape:cy="100.42373"
     inkscape:window-width="1536"
     inkscape:window-height="888"
     inkscape:window-x="0"
     inkscape:window-y="0"
     inkscape:window-maximized="1"
     inkscape:current-layer="svg4" />
  <circle
     style="fill:#238282;fill-opacity:1;stroke-width:0"
     id="path218"
     cx="128"
     cy="128"
     r="128" />
  <path
     d="m 92.000535,139.99946 a 12,12 0 1 1 12.000005,-12 12,12 0 0 1 -12.000005,12 z m 72.000005,-24 a 12,12 0 1 0 12,12 12,12 0 0 0 -12,-12 z m -12.27,45.23 a 45,45 0 0 1 -47.46,0 8.0041114,8.0041114 0 0 0 -8.540005,13.54 61,61 0 0 0 64.540005,0 8.0041114,8.0041114 0 0 0 -8.54,-13.54 z m 80.27,-33.23 a 104,104 0 1 1 -104,-103.999995 104.11,104.11 0 0 1 104,103.999995 z m -16,0 a 88.11,88.11 0 0 0 -84.09,-87.909995 c -11.59,16.29 -11.91,31.79 -11.91,31.91 a 8,8 0 0 0 16,0 8,8 0 0 1 16,0 24,24 0 0 1 -48,0 c 0,-0.73 0.13,-14.3 8.46,-30.63 a 88,88 0 1 0 103.54,86.629995 z"
     id="path2"
     style="fill:#ffffff" />
</svg>
